<svg width="96" height="16" viewBox="0 0 96 16" fill="none" xmlns="http://www.w3.org/2000/svg">
<g clip-path="url(#clip0_75_917)">
<path d="M15.5754 5.72254L10.6568 4.97121L8.4521 0.275207C8.28743 -0.0754596 7.7121 -0.0754596 7.54743 0.275207L5.34343 4.97121L0.424766 5.72254C0.0207661 5.78454 -0.140567 6.27587 0.142766 6.56587L3.7161 10.2285L2.87143 15.4065C2.8041 15.8179 3.24343 16.1265 3.60677 15.9245L8.0001 13.4965L12.3934 15.9252C12.7534 16.1252 13.1968 15.8225 13.1288 15.4072L12.2841 10.2292L15.8574 6.56654C16.1408 6.27587 15.9788 5.78454 15.5754 5.72254Z" fill="#FFC107"/>
</g>
<g clip-path="url(#clip1_75_917)">
<path d="M35.5754 5.72254L30.6568 4.97121L28.4521 0.275207C28.2874 -0.0754596 27.7121 -0.0754596 27.5474 0.275207L25.3434 4.97121L20.4248 5.72254C20.0208 5.78454 19.8594 6.27587 20.1428 6.56587L23.7161 10.2285L22.8714 15.4065C22.8041 15.8179 23.2434 16.1265 23.6068 15.9245L28.0001 13.4965L32.3934 15.9252C32.7534 16.1252 33.1968 15.8225 33.1288 15.4072L32.2841 10.2292L35.8574 6.56654C36.1408 6.27587 35.9788 5.78454 35.5754 5.72254Z" fill="#FFC107"/>
</g>
<g clip-path="url(#clip2_75_917)">
<path d="M55.5754 5.72254L50.6568 4.97121L48.4521 0.275207C48.2874 -0.0754596 47.7121 -0.0754596 47.5474 0.275207L45.3434 4.97121L40.4248 5.72254C40.0208 5.78454 39.8594 6.27587 40.1428 6.56587L43.7161 10.2285L42.8714 15.4065C42.8041 15.8179 43.2434 16.1265 43.6068 15.9245L48.0001 13.4965L52.3934 15.9252C52.7534 16.1252 53.1968 15.8225 53.1288 15.4072L52.2841 10.2292L55.8574 6.56654C56.1408 6.27587 55.9788 5.78454 55.5754 5.72254Z" fill="#FFC107"/>
</g>
<g clip-path="url(#clip3_75_917)">
<path d="M75.5754 5.72254L70.6568 4.97121L68.4521 0.275207C68.2874 -0.0754596 67.7121 -0.0754596 67.5474 0.275207L65.3434 4.97121L60.4248 5.72254C60.0208 5.78454 59.8594 6.27587 60.1428 6.56587L63.7161 10.2285L62.8714 15.4065C62.8041 15.8179 63.2434 16.1265 63.6068 15.9245L68.0001 13.4965L72.3934 15.9252C72.7534 16.1252 73.1968 15.8225 73.1288 15.4072L72.2841 10.2292L75.8574 6.56654C76.1408 6.27587 75.9788 5.78454 75.5754 5.72254Z" fill="#FFC107"/>
</g>
<g clip-path="url(#clip4_75_917)">
<path d="M95.5754 5.72254L90.6568 4.97121L88.4521 0.275207C88.2874 -0.0754596 87.7121 -0.0754596 87.5474 0.275207L85.3434 4.97121L80.4248 5.72254C80.0208 5.78454 79.8594 6.27587 80.1428 6.56587L83.7161 10.2285L82.8714 15.4065C82.8041 15.8179 83.2434 16.1265 83.6068 15.9245L88.0001 13.4965L92.3934 15.9252C92.7534 16.1252 93.1968 15.8225 93.1288 15.4072L92.2841 10.2292L95.8574 6.56654C96.1408 6.27587 95.9788 5.78454 95.5754 5.72254Z" fill="#D8D8D8"/>
</g>
<defs>
<clipPath id="clip0_75_917">
<rect width="16" height="16" fill="white"/>
</clipPath>
<clipPath id="clip1_75_917">
<rect width="16" height="16" fill="white" transform="translate(20)"/>
</clipPath>
<clipPath id="clip2_75_917">
<rect width="16" height="16" fill="white" transform="translate(40)"/>
</clipPath>
<clipPath id="clip3_75_917">
<rect width="16" height="16" fill="white" transform="translate(60)"/>
</clipPath>
<clipPath id="clip4_75_917">
<rect width="16" height="16" fill="white" transform="translate(80)"/>
</clipPath>
</defs>
</svg>

<svg xmlns="http://www.w3.org/2000/svg" width="96" height="16" fill="none"><g clip-path="url(#a)"><path fill="#FFC107" d="m15.575 5.723-4.918-.752L8.452.275c-.165-.35-.74-.35-.905 0L5.343 4.971l-4.918.752a.5.5 0 0 0-.282.843l3.573 3.663-.845 5.178a.5.5 0 0 0 .736.518L8 13.495l4.393 2.43a.5.5 0 0 0 .736-.519l-.845-5.178 3.573-3.662a.5.5 0 0 0-.282-.844Z"/></g><g clip-path="url(#b)"><path fill="#FFC107" d="m35.575 5.723-4.918-.752L28.452.275c-.165-.35-.74-.35-.905 0l-2.204 4.696-4.918.752a.5.5 0 0 0-.282.843l3.573 3.663-.845 5.178a.5.5 0 0 0 .736.518L28 13.495l4.393 2.43a.5.5 0 0 0 .736-.519l-.845-5.178 3.573-3.662a.5.5 0 0 0-.282-.844Z"/></g><g clip-path="url(#c)"><path fill="#FFC107" d="m55.575 5.723-4.918-.752L48.452.275c-.165-.35-.74-.35-.905 0l-2.204 4.696-4.918.752a.5.5 0 0 0-.282.843l3.573 3.663-.845 5.178a.5.5 0 0 0 .736.518L48 13.495l4.393 2.43a.5.5 0 0 0 .736-.519l-.845-5.178 3.573-3.662a.5.5 0 0 0-.282-.844Z"/></g><g clip-path="url(#d)"><path fill="#FFC107" d="m75.575 5.723-4.918-.752L68.452.275c-.165-.35-.74-.35-.905 0l-2.204 4.696-4.918.752a.5.5 0 0 0-.282.843l3.573 3.663-.845 5.178a.5.5 0 0 0 .736.518L68 13.495l4.393 2.43a.5.5 0 0 0 .736-.519l-.845-5.178 3.573-3.662a.5.5 0 0 0-.282-.844Z"/></g><g clip-path="url(#e)"><path fill="#D8D8D8" d="m95.575 5.723-4.918-.752L88.452.275c-.165-.35-.74-.35-.905 0l-2.204 4.696-4.918.752a.5.5 0 0 0-.282.843l3.573 3.663-.845 5.178a.5.5 0 0 0 .736.518L88 13.495l4.393 2.43a.5.5 0 0 0 .736-.519l-.845-5.178 3.573-3.662a.5.5 0 0 0-.282-.844Z"/></g><defs><clipPath id="a"><path fill="#fff" d="M0 0h16v16H0z"/></clipPath><clipPath id="b"><path fill="#fff" d="M20 0h16v16H20z"/></clipPath><clipPath id="c"><path fill="#fff" d="M40 0h16v16H40z"/></clipPath><clipPath id="d"><path fill="#fff" d="M60 0h16v16H60z"/></clipPath><clipPath id="e"><path fill="#fff" d="M80 0h16v16H80z"/></clipPath></defs></svg>